<?xml version="1.0" encoding="UTF-8"?><svg id="Layer_1" xmlns="http://www.w3.org/2000/svg" viewBox="0 0 716.19 913.06"><defs><style>.cls-1{fill:#f2f0e2;}</style></defs><path class="cls-1" d="M576.18,596.51c-54.36-14.27-111.83-4.74-164.52,12.44-65.88,21.67-129.68,55.68-199.38,61.88-81.38,8.49-153.77-30.5-182.76-110.74-23.97-64.74-19.43-142.01,16.93-201.07,40.93-68.27,125.05-100.41,198-68.16,60.86,25.53,104.87,78.66,159.68,114.33,42.29,28.39,91.48,48.65,142.39,44.34,87.74-6.23,146.68-86.33,151.33-172.64,2.47-35.52-2.31-71.76-13.36-105.45-28.22-87.22-102.35-151.75-191.09-166.87l-.18-.03c-37.19-7.14-77.03-5.77-114.04,3.53-14.28,3.56-31.6,9.26-42.68,13.89-22.42,9.15-37.96,19.11-1.67,8.89,31.02-8.32,68.04-17.86,102.02-18.51,73.93-2.92,149.89,27.47,196.27,87.52,24.06,30.64,40.66,66.7,48.54,105.41,10.77,54.88,9.17,122.66-36.27,160.55-28.24,23.54-67.81,20.92-98.68,3.48-34.58-18.59-61.13-50.75-89.13-79.31-40.05-42.48-89.23-78.14-146.91-88.2-116.75-20.99-239.26,52.9-288.04,161.69C-22.88,463.19-.96,606.74,99.3,662.03c57.49,31.24,126.12,25.44,187.47,8.64,88.14-25.23,175.98-53.98,253.94,14.78,41.09,36.62,65.37,91.1,76.47,146.39,5.4,26.71,7.72,54.02,7.03,81.23h91.98s0-194.94,0-194.94c-27.68-58.45-77.44-106.15-140.01-121.61Z"/><path class="cls-1" d="M258.21,83.5c-7.61,3.7-19.2,14.68-16.9,23.38l.03.07c1.8,2.68,7.36.22,10.31-1.23,5.79-3.02,11.37-8.2,14.51-14.13,6.68-13.2-.39-12.45-7.96-8.09Z"/><path class="cls-1" d="M519.57,752.88c.84-1.59,9.58-14.69,4.73-12.1-9.21,7.45-16.11,16.8-25.08,27.34-19.75,24.33-39.32,52.99-55.82,80.18-11.7,19.5-25.06,42.98-35.34,63.59l87.71,1.16c-32.54-17.5-53.69-44.39-35.25-73.11,18.74-29.21,41.94-59.95,59.06-87.06Z"/></svg>